<svg width="94" height="62" viewBox="0 0 94 62" fill="none" xmlns="http://www.w3.org/2000/svg">
<rect opacity="0.15" width="94" height="62" rx="1" fill="#BC1948"/>
<circle cx="11" cy="11" r="3" fill="white"/>
<rect x="4.5" y="4.5" width="85" height="53" rx="1.5" stroke="white"/>
<path d="M75.1379 42.9331C77.8994 42.9331 80.1379 40.6945 80.1379 37.9331C80.1379 35.1717 77.8994 32.9331 75.1379 32.9331C72.3765 32.9331 70.1379 35.1717 70.1379 37.9331C70.1379 40.6945 72.3765 42.9331 75.1379 42.9331ZM69.0665 44.3616C67.6858 44.3616 66.5665 45.481 66.5665 46.8617L66.5665 47.2189C66.5665 48.9285 67.6541 50.3741 69.1986 51.357C70.7516 52.3452 72.8533 52.9331 75.1379 52.9331C77.4224 52.9331 79.5242 52.3452 81.0772 51.357C82.6217 50.3741 83.7094 48.9285 83.7094 47.2188V46.8616C83.7094 45.4809 82.5901 44.3616 81.2094 44.3616H69.0665Z" fill="white"/>
</svg>
